PSF_ID_stride5.mot
nRows=12
nColumns=38

name PSF_ID_stride5.mot
datacolumns 38
datarows 12
range 2.7300000000 2.7850000000
endheader
time	pelvis_tilt_moment	pelvis_list_moment	pelvis_rotation_moment	pelvis_tx_force	pelvis_ty_force	pelvis_tz_force	hip_flexion_r_moment	hip_adduction_r_moment	hip_rotation_r_moment	knee_angle_r_moment	ankle_angle_r_moment	subtalar_angle_r_moment	mtp_angle_r_moment	hip_flexion_l_moment	hip_adduction_l_moment	hip_rotation_l_moment	knee_angle_l_moment	ankle_angle_l_moment	subtalar_angle_l_moment	mtp_angle_l_moment	lumbar_extension_moment	lumbar_bending_moment	lumbar_rotation_moment	arm_flex_r_moment	arm_add_r_moment	arm_rot_r_moment	elbow_flex_r_moment	pro_sup_r_moment	wrist_flex_r_moment	wrist_dev_r_moment	arm_flex_l_moment	arm_add_l_moment	arm_rot_l_moment	elbow_flex_l_moment	pro_sup_l_moment	wrist_flex_l_moment	wrist_dev_l_moment
        2.7300000000	       28.5862662411	      -34.5143669944	       32.3577440136	       -1.8106929292	      -65.6974273105	      -74.7370100471	      -12.1710673050	       -6.9928396783	        2.3144635302	        0.0223441252	        2.3021925502	       -0.6527547883	        0.1176693667	       -7.3940651290	      -31.2920954511	      -18.5985863527	       -4.5318758471	     -181.9872189157	       23.9152589753	       -0.0498948124	        3.1782954968	        1.9205896129	       34.8618563379	        6.8508793016	        4.3744085667	        3.4759857545	        4.5640435967	        0.0175550417	        0.4647127546	       -0.2802975840	       -0.3978403238	       -1.2278947350	       -2.6420998823	        4.0957697796	       -0.1777646658	       -0.2380085450	       -0.4023233617	
        2.7350000000	       29.4233992226	      -38.8821189796	       29.6733125889	       11.6667588312	      -56.0873146689	      -55.0891143241	      -14.0476697325	       -6.9602948978	        2.5627897157	       -0.4358671801	        2.3822815829	       -0.7045882264	        0.1208870232	       -3.5813812724	      -23.0727591153	      -17.2113860126	       -7.9228691156	     -166.1608276171	       23.6943081534	       -0.0566190899	       -3.0817973414	        2.0091815551	       32.8981266373	        6.1808091391	        3.8267255891	        3.1676442411	        4.0046610009	        0.0209807831	        0.4233680263	       -0.2336993171	       -0.8234696732	       -1.0602029468	       -2.3944942449	        3.4841169293	       -0.1601887985	       -0.2253276449	       -0.3405318530	
        2.7400000000	       23.9163926679	      -34.7156250410	       23.7822593327	       18.4644858324	      -44.7991720095	      -38.2573778619	      -15.7921928341	       -6.5195877595	        2.6349041882	       -0.8060756595	        2.4763582037	       -0.7507371152	        0.1255723133	        4.1705531148	      -21.9620941252	      -12.1635495243	       -9.2832935420	     -150.0779839050	       23.2090322795	       -0.0632899221	       -6.6057758038	        2.2934270014	       30.5830590320	        5.4427889755	        3.2267912850	        2.8185374551	        3.4673519288	        0.0225204522	        0.3787007667	       -0.1921121135	       -1.2211711663	       -0.8160460726	       -2.0941595072	        2.9109539172	       -0.1411958067	       -0.2065011987	       -0.2825428170	
        2.7450000000	       14.3123064954	      -26.8534356218	       17.1426025246	       23.4873826875	      -30.1875290204	      -26.7753141519	      -17.1332325600	       -5.6791879181	        2.6420451629	       -1.1424743883	        2.5816985208	       -0.7940008591	        0.1313158876	       13.2348567784	      -22.0583223428	       -5.7264969651	      -10.4421136472	     -133.8485438474	       22.1609557077	       -0.0687467722	       -7.7465711583	        2.3944354518	       28.3224682180	        4.7389422123	        2.6190199459	        2.4644056000	        2.9784476706	        0.0234939044	        0.3352655154	       -0.1564829615	       -1.5927317216	       -0.5246057881	       -1.7809815787	        2.3842921195	       -0.1226378808	       -0.1853271905	       -0.2302355273	
        2.7500000000	        5.0345123628	      -17.3700291711	       13.2007794623	       28.2812379343	      -10.5058829422	      -21.7483375562	      -17.9471936217	       -4.4968638844	        2.5655575513	       -1.4765447452	        2.6967154908	       -0.8353470944	        0.1377004334	       21.1350597319	      -23.3037928122	       -1.2054946288	      -11.7754379094	     -117.6247302739	       19.8269387459	       -0.0716592493	       -7.8334291198	        2.0307492059	       26.4626380233	        4.1481212404	        2.0412229537	        2.1359047182	        2.5588895090	        0.0243288102	        0.2968091665	       -0.1276425048	       -1.9383648253	       -0.2200924916	       -1.4908607289	        1.9130808887	       -0.1059993515	       -0.1660348961	       -0.1852515041	
        2.7550000000	       -0.0261956247	       -8.4076184173	       13.5863831321	       35.5551025860	        9.9813280225	      -23.4024482567	      -18.2762550938	       -3.0327248342	        2.4595755310	       -1.8715023325	        2.8128197458	       -0.8753387600	        0.1439661899	       27.2437722030	      -20.4112059599	       -0.0790691228	      -13.1007928546	     -101.7169971925	       17.0684173113	       -0.0708898865	       -6.8744899214	        0.6104047663	       25.2216293754	        3.7168350931	        1.5365373982	        1.8631171307	        2.2147486088	        0.0261334761	        0.2663254215	       -0.1048973255	       -2.2705313926	        0.0489793957	       -1.2572658648	        1.4919814760	       -0.0924300946	       -0.1520581444	       -0.1476001690	
        2.7600000000	        1.1637503101	        2.0623395164	       18.0713714543	       44.1186934632	       25.0685542828	      -31.9914487141	      -18.4457494489	       -1.2438964088	        2.3196949039	       -2.3802539965	        2.9175507192	       -0.9112703046	        0.1493785532	       34.1449474968	      -13.1303086012	       -1.7371402327	      -12.5400720064	      -86.2090220520	       14.7806224168	       -0.0644810141	       -5.8359696827	       -1.9342400363	       24.6776686769	        3.4387526484	        1.1324737393	        1.6641674266	        1.9260793768	        0.0296948943	        0.2449972613	       -0.0856464578	       -2.6153583905	        0.2437162109	       -1.0990449159	        1.0976201534	       -0.0821297913	       -0.1459408583	       -0.1152406550	
        2.7650000000	        5.3666270217	       16.3159647056	       24.0386883739	       50.7159986990	       24.4149681217	      -46.4338284743	      -19.0368793383	        0.9574018999	        2.1212459526	       -3.0639158318	        2.9937959146	       -0.9391779740	        0.1532199761	       44.5797477375	       -3.5700319331	       -3.2059365490	       -9.3894109292	      -70.5862100092	       13.0269616983	       -0.0510224744	       -5.1661584313	       -5.5195487144	       24.7143345485	        3.2385197555	        0.8299920073	        1.5397146099	        1.6445242056	        0.0355335965	        0.2314357650	       -0.0654772137	       -3.0024938844	        0.3266335050	       -1.0168971045	        0.6917882704	       -0.0740574210	       -0.1476295746	       -0.0840027822	
        2.7700000000	        9.8783120790	       32.9188030217	       27.2954168879	       51.2637235471	       13.1324819502	      -60.3746523614	      -20.6591655235	        3.6859727258	        1.8424279293	       -4.0264356404	        3.0064228275	       -0.9462352120	        0.1539342430	       57.8145092584	        4.4255831454	       -2.9394694618	       -3.5909692910	      -55.4128029195	       11.2410896210	       -0.0293649083	       -5.1369088490	       -9.6373477289	       24.8966556882	        3.0122218347	        0.5986750538	        1.4671834752	        1.3136836198	        0.0437919610	        0.2211424534	       -0.0399846755	       -3.4535052508	        0.3237254390	       -0.9874604239	        0.2346275792	       -0.0662275484	       -0.1540529670	       -0.0491211421	
        2.7750000000	       12.4650691031	       46.7387045869	       28.5392096061	       46.7042819980	      -21.8617748650	      -69.3764395004	      -23.9402681988	        6.9695918019	        1.4833036154	       -5.3622998782	        2.9880009867	       -0.9468594352	        0.1535145057	       69.1020804906	       10.0408159957	       -0.4085113561	        1.5573025183	      -41.7075105046	        9.2281930855	        0.0010016014	       -5.6837719101	      -13.6481136842	       25.0801173720	        2.6959555977	        0.4021347793	        1.4167130718	        0.9011155013	        0.0540526173	        0.2113000025	       -0.0065555403	       -3.9675628324	        0.2457547770	       -0.9744505916	       -0.2897411450	       -0.0574669148	       -0.1641350169	       -0.0081277541	
        2.7800000000	       11.5240371555	       48.6863158578	       27.4093409667	       36.0823353594	      -72.7204275096	      -62.9086949830	      -28.8393223425	       10.8029001606	        1.0811204365	       -7.2303101147	        2.9176368799	       -0.9325913965	        0.1510911454	       70.0689683955	       13.0460845509	        2.5489388846	        0.9214601772	      -32.1590020399	        7.1477777897	        0.0396274901	       -6.9294594763	      -16.6977934380	       24.7606908650	        2.1915419327	        0.1892815388	        1.3515207868	        0.3710068027	        0.0650864593	        0.1962040656	        0.0368150952	       -4.5244674086	        0.1390498847	       -0.9423086760	       -0.8918137788	       -0.0456394260	       -0.1728303319	        0.0418093572	
        2.7850000000	        8.4857631096	       41.1341502657	       26.3074901024	       22.2273210384	     -132.2491104080	      -43.0084498079	      -35.2431315524	       15.0264671480	        0.7123261275	       -9.8117138848	        2.8158064827	       -0.9116790278	        0.1478267194	       63.5804807016	       16.2848886974	        3.8432261031	       -3.8309358246	      -26.4685271849	        5.7144821282	        0.0858366819	       -8.8039960828	      -17.2327478331	       23.7936288447	        1.4906700256	       -0.0715848282	        1.2445057685	       -0.2550644333	        0.0753007026	        0.1735687043	        0.0878714774	       -5.0707490548	        0.0482274068	       -0.8632831450	       -1.5343160204	       -0.0304486269	       -0.1734959841	        0.0986401493	
